<svg width="83" height="83" viewBox="0 0 83 83" fill="none" xmlns="http://www.w3.org/2000/svg">
<g clip-path="url(#clip0_383_645)">
<path d="M42.3067 2.63559C42.3583 2.37472 42.3637 2.10502 42.3222 1.84188C42.2807 1.57873 42.193 1.3273 42.0645 1.10195C41.9357 0.876594 41.7686 0.681725 41.5727 0.528465C41.3767 0.375206 41.1555 0.266557 40.9217 0.208725L40.8304 0.186043C40.5965 0.12821 40.3551 0.122327 40.1195 0.168727C39.8838 0.215127 39.6586 0.312901 39.4565 0.456469C39.2548 0.600039 39.0802 0.786587 38.943 1.00547C38.8059 1.22435 38.7085 1.47127 38.6565 1.73214L35.887 15.6808C35.8351 15.9416 35.8299 16.2114 35.8714 16.4745C35.913 16.7376 36.0006 16.9891 36.1293 17.2144C36.2578 17.4398 36.4249 17.6346 36.6208 17.7879C36.8168 17.9412 37.038 18.0498 37.2718 18.1076L37.3631 18.1303C37.597 18.1882 37.8384 18.194 38.0741 18.1476C38.3101 18.1013 38.5352 18.0035 38.737 17.8599C38.9387 17.7163 39.1134 17.5298 39.2505 17.3109C39.388 17.092 39.4851 16.8451 39.537 16.5842L42.3067 2.63559Z" fill="#8B5CF6"/>
<path d="M23.4615 6.22838C23.2342 5.77781 22.8558 5.44653 22.4096 5.30745C21.9634 5.16836 21.4861 5.23287 21.0825 5.48674L21.0259 5.52232C20.8261 5.64803 20.6504 5.81645 20.5088 6.01798C20.3673 6.21952 20.2627 6.45019 20.2011 6.69685C20.1394 6.94351 20.1218 7.20134 20.1494 7.45558C20.1769 7.70981 20.249 7.95551 20.3616 8.1786L27.1253 21.5806C27.3527 22.0312 27.7311 22.3625 28.1773 22.5016C28.6235 22.6407 29.1008 22.5762 29.5044 22.3223L29.561 22.2867C29.7608 22.161 29.9365 21.9925 30.078 21.791C30.2196 21.5895 30.3242 21.3588 30.3858 21.1122C30.4475 20.8655 30.4651 20.6077 30.4375 20.3535C30.41 20.0992 30.3378 19.8535 30.2252 19.6304L23.4615 6.22838Z" fill="#8B5CF6"/>
<path d="M73.9493 39.1631C73.3863 40.4605 72.6455 41.2421 71.7263 41.5081C66.7442 42.9505 61.7569 44.378 56.7647 45.791C56.0429 45.9965 55.0469 46.1456 54.4876 45.8152C53.6323 45.3156 52.5172 44.3002 51.5104 44.6427C49.3575 45.3813 47.1428 46.1146 44.8668 46.8426C44.7456 46.8817 44.6398 46.9647 44.5662 47.0791C44.4929 47.1932 44.4565 47.3314 44.4626 47.4712C44.4821 47.9788 44.6445 48.4893 44.9498 49.0022C47.945 54.0306 53.3436 56.4763 58.6376 54.9935C63.0283 53.7606 67.4154 52.5144 71.7985 51.2545C73.9183 50.6473 75.4483 50.051 76.3888 49.4656C80.4341 46.9433 82.9638 41.9392 82.7762 36.8101C82.6607 33.5989 81.293 28.9533 80.4522 25.2667C79.8484 22.6182 79.3096 20.793 78.8355 19.7911C76.8002 15.4678 72.6502 12.5668 68.3161 12.3815C67.0653 12.3278 65.0935 12.681 62.4015 13.4412C58.4128 14.5666 54.4205 15.6787 50.4242 16.7773C47.9392 17.4595 45.7932 18.8012 43.9863 20.8024C42.1062 22.8854 42.6078 26.7171 45.206 27.5189C45.8653 27.7231 46.8108 27.6506 48.0425 27.3014C53.4533 25.7649 58.8613 24.2177 64.2672 22.6598C66.3169 22.0689 67.6943 21.8124 68.3991 21.8902C70.158 22.0863 71.2897 23.3193 71.7949 25.589C72.5145 28.8123 73.2795 32.0248 74.09 35.2267C74.4751 36.7524 74.4282 38.0645 73.9493 39.1631Z" fill="#8B5CF6"/>
<path d="M22.2738 27.5265C22.431 27.0139 22.3993 26.4526 22.1859 25.9661C21.9724 25.4795 21.5946 25.1076 21.1355 24.9322L9.05627 20.3147C8.59721 20.1392 8.09448 20.1745 7.65873 20.4129C7.22294 20.6512 6.88986 21.0731 6.73267 21.5856L6.70459 21.6771C6.54743 22.1897 6.57904 22.751 6.79253 23.2375C7.00599 23.7241 7.38385 24.0959 7.84292 24.2715L19.9221 28.8889C20.3812 29.0644 20.8839 29.0291 21.3197 28.7907C21.7554 28.5524 22.0886 28.1305 22.2457 27.618L22.2738 27.5265Z" fill="#8B5CF6"/>
<path d="M34.6288 56.5367C34.683 57.7938 34.3907 59.3329 33.6509 60.1387C30.2539 63.8347 26.8605 67.5374 23.4708 71.247C21.9515 72.903 20.6632 73.9828 18.6207 73.2656C17.935 73.0239 17.1195 72.3631 16.174 71.2833C14.1651 68.9948 12.1647 66.6994 10.1727 64.3975C8.72444 62.7266 8.31305 61.0372 8.93854 59.3289C9.21522 58.5686 10.1005 57.3828 11.5945 55.7712C15.848 51.1808 20.0004 46.476 24.0518 41.6571C24.9611 40.5773 25.221 39.3834 24.8312 38.0752C23.976 35.1904 21.6736 34.8923 19.3568 35.8875C17.5838 36.6476 15.8949 37.894 14.2902 39.6265C11.1242 43.0403 7.97863 46.4788 4.8535 49.941C3.33062 51.6252 2.30215 53.006 1.76806 54.083C-0.169807 57.967 -0.296111 62.9954 1.42163 66.9359C2.01345 68.2925 3.37874 70.2075 5.5175 72.6814C7.88119 75.4172 10.7573 79.2287 13.3953 80.9814C17.0292 83.3949 21.7963 83.5238 25.4952 81.3883C26.5803 80.7598 28.0454 79.4491 29.8906 77.4559C32.9869 74.1089 36.082 70.7607 39.1758 67.4113C43.4557 62.7778 44.4264 55.7712 41.359 50.0095C41.0415 49.4104 40.6687 49.3298 40.2403 49.7678C38.5468 51.5003 36.8456 53.226 35.1377 54.9452C34.8598 55.2272 34.6072 56.021 34.6288 56.5367Z" fill="#8B5CF6"/>
</g>
<defs>
<clipPath id="clip0_383_645">
<rect width="83" height="83" fill="white"/>
</clipPath>
</defs>
</svg>
